<?xml version="1.0" encoding="UTF-8" standalone="no"?> <svg xmlns="http://www.w3.org/2000/svg" viewBox="0 0 32 32"><defs><style>.cls-1{fill:#3fa9f5;}.cls-2{fill:#2e3192;}</style></defs><title>Atm, atm card, atm machine, card, debit card</title><g id="_01" data-name="01"><path class="cls-1" d="M7,21H4a1,1,0,0,1-1-1V7A1,1,0,0,1,5,7V19H7a1,1,0,0,1,0,2Z"/><path class="cls-2" d="M29,22H22a1,1,0,0,1,0-2h6V7H4V20h6a1,1,0,0,1,0,2H3a1,1,0,0,1-1-1V6A1,1,0,0,1,3,5H29a1,1,0,0,1,1,1V21A1,1,0,0,1,29,22Z"/><path class="cls-1" d="M22,30H10a1,1,0,0,1-1-1V15a1,1,0,0,1,1-1H22a1,1,0,0,1,1,1V29A1,1,0,0,1,22,30ZM11,28H21V16H11Z"/><path class="cls-2" d="M25,16H7a1,1,0,0,1,0-2H25a1,1,0,0,1,0,2Z"/><circle class="cls-2" cx="25" cy="11" r="1"/><path class="cls-2" d="M20,12H9a1,1,0,0,1,0-2H20a1,1,0,0,1,0,2Z"/><path class="cls-2" d="M15.45,24.81V24a3.26,3.26,0,0,1-1.4-.35l.25-1a2.87,2.87,0,0,0,1.36.36c.47,0,.79-.18.79-.51s-.26-.51-.87-.71c-.88-.3-1.48-.71-1.48-1.51a1.52,1.52,0,0,1,1.39-1.46v-.78h.8v.72a2.88,2.88,0,0,1,1.19.28l-.24.92a2.7,2.7,0,0,0-1.18-.28c-.53,0-.7.23-.7.46s.28.45,1,.71c1,.34,1.37.8,1.37,1.54A1.56,1.56,0,0,1,16.25,24v.84Z"/><circle class="cls-2" cx="24.78" cy="3.22" r="0.78"/><circle class="cls-2" cx="10.78" cy="4" r="0.4"/></g></svg>