<svg width="24" height="24" viewBox="0 0 24 24" fill="none" xmlns="http://www.w3.org/2000/svg">
<path d="M4.14 2V20.1C4.13989 20.5971 4.33457 21.0744 4.68228 21.4296C5.02999 21.7847 5.50305 21.9895 6 22H18.2C17.9348 22 17.6804 21.8946 17.4929 21.7071C17.3054 21.5196 17.2 21.2652 17.2 21V2H4.14Z" fill="#EAE2F9"/>
<path d="M19.59 12.59V21.05C19.5913 21.1751 19.5677 21.2993 19.5204 21.4151C19.4731 21.531 19.4032 21.6362 19.3147 21.7247C19.2263 21.8132 19.121 21.8831 19.0051 21.9304C18.8893 21.9777 18.7651 22.0013 18.64 22H18.2C18.0757 22 17.9527 21.9754 17.838 21.9275C17.7233 21.8796 17.6192 21.8095 17.5318 21.7212C17.4443 21.6328 17.3753 21.528 17.3287 21.4128C17.282 21.2976 17.2587 21.1743 17.26 21.05V12.59H19.59Z" fill="#A2A5DE"/>
<path d="M14.47 2V21C14.47 21.2652 14.5754 21.5196 14.7629 21.7071C14.9504 21.8946 15.2048 22 15.47 22H18.26C17.9948 22 17.7404 21.8946 17.5529 21.7071C17.3654 21.5196 17.26 21.2652 17.26 21V2H14.47Z" fill="#C0C3EE"/>
<path d="M19.59 12.09H17.76V2C17.76 1.86739 17.7073 1.74021 17.6136 1.64645C17.5198 1.55268 17.3926 1.5 17.26 1.5H4.14C4.00739 1.5 3.88021 1.55268 3.78645 1.64645C3.69268 1.74021 3.64 1.86739 3.64 2V20.1C3.63991 20.7296 3.88727 21.3341 4.32874 21.7831C4.77021 22.232 5.37044 22.4895 6 22.5H18.4C18.8394 22.4974 19.2602 22.3216 19.5709 22.0109C19.8816 21.7002 20.0574 21.2794 20.06 20.84V12.59C20.0602 12.4624 20.0117 12.3396 19.9243 12.2466C19.8369 12.1537 19.7173 12.0977 19.59 12.09ZM6 21.5C5.63043 21.4974 5.2769 21.3487 5.01651 21.0864C4.75612 20.8242 4.60999 20.4696 4.61 20.1V2.5H16.76V20.84C16.7601 21.0674 16.8078 21.2922 16.9 21.5H6ZM19.06 20.84C19.0574 21.016 18.9856 21.1838 18.8603 21.3073C18.7349 21.4308 18.566 21.5 18.39 21.5C18.3033 21.5 18.2175 21.4829 18.1374 21.4498C18.0574 21.4166 17.9846 21.368 17.9233 21.3067C17.862 21.2454 17.8134 21.1726 17.7802 21.0926C17.7471 21.0125 17.73 20.9267 17.73 20.84V13.09H19.06V20.84Z" fill="black"/>
<path d="M10.7 6.99999C10.7964 7.0026 10.8879 7.04273 10.9552 7.11184C11.0224 7.18094 11.06 7.27357 11.06 7.36999C11.0539 7.43891 11.0291 7.50486 10.9883 7.56072C10.9475 7.61659 10.8922 7.66026 10.8284 7.68701C10.7646 7.71377 10.6947 7.7226 10.6263 7.71255C10.5578 7.7025 10.4934 7.67396 10.44 7.62999C10.4066 7.5949 10.3795 7.55431 10.36 7.50999C10.3362 7.44707 10.2999 7.3896 10.2533 7.34104C10.2067 7.29248 10.1508 7.25382 10.0889 7.22738C10.027 7.20094 9.96045 7.18726 9.89316 7.18716C9.82587 7.18707 9.75925 7.20055 9.69729 7.22682C9.63534 7.25308 9.57933 7.29158 9.5326 7.34001C9.48588 7.38843 9.44942 7.44579 9.42539 7.50865C9.40137 7.57151 9.39028 7.63857 9.39279 7.70581C9.3953 7.77305 9.41136 7.8391 9.44 7.89999C9.50445 8.0626 9.60339 8.2093 9.73 8.32999C9.85887 8.46801 10.0205 8.57121 10.2 8.62999V8.81999C10.2 8.9526 10.2527 9.07978 10.3464 9.17354C10.4402 9.26731 10.5674 9.31999 10.7 9.31999C10.8326 9.31999 10.9598 9.26731 11.0536 9.17354C11.1473 9.07978 11.2 8.9526 11.2 8.81999V8.65999C11.5075 8.55049 11.7657 8.33482 11.9283 8.05182C12.0909 7.76882 12.1471 7.43707 12.0868 7.11631C12.0265 6.79555 11.8537 6.50685 11.5994 6.3022C11.3452 6.09754 11.0262 5.99038 10.7 5.99999C10.6519 6.00133 10.604 5.993 10.5592 5.97551C10.5143 5.95802 10.4734 5.93172 10.439 5.89815C10.4045 5.86459 10.377 5.82445 10.3583 5.78011C10.3396 5.73576 10.33 5.68812 10.33 5.63999C10.3311 5.56263 10.3558 5.48745 10.4008 5.4245C10.4458 5.36156 10.509 5.31386 10.5818 5.28776C10.6547 5.26167 10.7337 5.25844 10.8085 5.27849C10.8832 5.29855 10.95 5.34094 11 5.39999C11.027 5.43774 11.0504 5.47791 11.07 5.51999C11.0961 5.58054 11.1339 5.63533 11.1813 5.6812C11.2286 5.72708 11.2846 5.76314 11.3459 5.7873C11.4072 5.81147 11.4728 5.82326 11.5387 5.82201C11.6046 5.82075 11.6696 5.80647 11.73 5.77999C11.7911 5.75589 11.8467 5.71976 11.8935 5.67376C11.9403 5.62775 11.9775 5.5728 12.0026 5.51217C12.0278 5.45154 12.0406 5.38646 12.0401 5.32081C12.0397 5.25516 12.026 5.19027 12 5.12999C11.9283 4.9683 11.8303 4.81962 11.71 4.68999C11.5778 4.56081 11.4215 4.45888 11.25 4.38999V4.20999C11.25 4.07738 11.1973 3.95021 11.1036 3.85644C11.0098 3.76267 10.8826 3.70999 10.75 3.70999C10.6174 3.70999 10.4902 3.76267 10.3964 3.85644C10.3027 3.95021 10.25 4.07738 10.25 4.20999V4.38999C9.96744 4.50963 9.73364 4.7213 9.58659 4.99061C9.43955 5.25993 9.38789 5.57105 9.44003 5.87344C9.49216 6.17582 9.64502 6.45168 9.87376 6.6562C10.1025 6.86073 10.3937 6.98188 10.7 6.99999V6.99999Z" fill="black"/>
<path d="M6.56 12.21H8.47C8.60261 12.21 8.72978 12.1573 8.82355 12.0635C8.91732 11.9698 8.97 11.8426 8.97 11.71C8.97 11.5774 8.91732 11.4502 8.82355 11.3564C8.72978 11.2627 8.60261 11.21 8.47 11.21H6.56C6.42739 11.21 6.30021 11.2627 6.20644 11.3564C6.11268 11.4502 6.06 11.5774 6.06 11.71C6.06 11.8426 6.11268 11.9698 6.20644 12.0635C6.30021 12.1573 6.42739 12.21 6.56 12.21Z" fill="black"/>
<path d="M14.83 11.21H10.5C10.3674 11.21 10.2402 11.2627 10.1464 11.3564C10.0527 11.4502 10 11.5774 10 11.71C10 11.8426 10.0527 11.9698 10.1464 12.0635C10.2402 12.1573 10.3674 12.21 10.5 12.21H14.83C14.9626 12.21 15.0898 12.1573 15.1836 12.0635C15.2773 11.9698 15.33 11.8426 15.33 11.71C15.33 11.5774 15.2773 11.4502 15.1836 11.3564C15.0898 11.2627 14.9626 11.21 14.83 11.21Z" fill="black"/>
<path d="M14.83 13.1H12.92C12.7874 13.1 12.6602 13.1527 12.5664 13.2465C12.4727 13.3402 12.42 13.4674 12.42 13.6C12.42 13.7326 12.4727 13.8598 12.5664 13.9536C12.6602 14.0473 12.7874 14.1 12.92 14.1H14.83C14.9626 14.1 15.0898 14.0473 15.1836 13.9536C15.2773 13.8598 15.33 13.7326 15.33 13.6C15.33 13.4674 15.2773 13.3402 15.1836 13.2465C15.0898 13.1527 14.9626 13.1 14.83 13.1Z" fill="black"/>
<path d="M6.56 14.1H10.9C11.0326 14.1 11.1598 14.0473 11.2536 13.9536C11.3473 13.8598 11.4 13.7326 11.4 13.6C11.4 13.4674 11.3473 13.3402 11.2536 13.2465C11.1598 13.1527 11.0326 13.1 10.9 13.1H6.56C6.42739 13.1 6.30021 13.1527 6.20644 13.2465C6.11268 13.3402 6.06 13.4674 6.06 13.6C6.06 13.7326 6.11268 13.8598 6.20644 13.9536C6.30021 14.0473 6.42739 14.1 6.56 14.1V14.1Z" fill="black"/>
<path d="M6.56 16H8.47C8.60261 16 8.72978 15.9473 8.82355 15.8536C8.91732 15.7598 8.97 15.6326 8.97 15.5C8.97 15.3674 8.91732 15.2402 8.82355 15.1464C8.72978 15.0527 8.60261 15 8.47 15H6.56C6.42739 15 6.30021 15.0527 6.20644 15.1464C6.11268 15.2402 6.06 15.3674 6.06 15.5C6.06 15.6326 6.11268 15.7598 6.20644 15.8536C6.30021 15.9473 6.42739 16 6.56 16Z" fill="black"/>
<path d="M14.83 15H10.5C10.3674 15 10.2402 15.0527 10.1464 15.1464C10.0527 15.2402 10 15.3674 10 15.5C10 15.6326 10.0527 15.7598 10.1464 15.8536C10.2402 15.9473 10.3674 16 10.5 16H14.83C14.9626 16 15.0898 15.9473 15.1836 15.8536C15.2773 15.7598 15.33 15.6326 15.33 15.5C15.33 15.3674 15.2773 15.2402 15.1836 15.1464C15.0898 15.0527 14.9626 15 14.83 15Z" fill="black"/>
<path d="M14.83 16.89H12.92C12.7874 16.89 12.6602 16.9427 12.5664 17.0365C12.4727 17.1302 12.42 17.2574 12.42 17.39C12.42 17.5226 12.4727 17.6498 12.5664 17.7436C12.6602 17.8373 12.7874 17.89 12.92 17.89H14.83C14.9626 17.89 15.0898 17.8373 15.1836 17.7436C15.2773 17.6498 15.33 17.5226 15.33 17.39C15.33 17.2574 15.2773 17.1302 15.1836 17.0365C15.0898 16.9427 14.9626 16.89 14.83 16.89Z" fill="black"/>
<path d="M6.56 17.89H10.9C11.0326 17.89 11.1598 17.8373 11.2536 17.7436C11.3473 17.6498 11.4 17.5226 11.4 17.39C11.4 17.2574 11.3473 17.1302 11.2536 17.0365C11.1598 16.9427 11.0326 16.89 10.9 16.89H6.56C6.42739 16.89 6.30021 16.9427 6.20644 17.0365C6.11268 17.1302 6.06 17.2574 6.06 17.39C6.06 17.5226 6.11268 17.6498 6.20644 17.7436C6.30021 17.8373 6.42739 17.89 6.56 17.89V17.89Z" fill="black"/>
<path d="M8.47 18.78H6.56C6.42739 18.78 6.30021 18.8327 6.20644 18.9264C6.11268 19.0202 6.06 19.1474 6.06 19.28C6.06 19.4126 6.11268 19.5398 6.20644 19.6336C6.30021 19.7273 6.42739 19.78 6.56 19.78H8.47C8.60261 19.78 8.72978 19.7273 8.82355 19.6336C8.91732 19.5398 8.97 19.4126 8.97 19.28C8.97 19.1474 8.91732 19.0202 8.82355 18.9264C8.72978 18.8327 8.60261 18.78 8.47 18.78Z" fill="black"/>
<path d="M14.83 18.78H10.5C10.3674 18.78 10.2402 18.8327 10.1464 18.9264C10.0527 19.0202 10 19.1474 10 19.28C10 19.4126 10.0527 19.5398 10.1464 19.6336C10.2402 19.7273 10.3674 19.78 10.5 19.78H14.83C14.9626 19.78 15.0898 19.7273 15.1836 19.6336C15.2773 19.5398 15.33 19.4126 15.33 19.28C15.33 19.1474 15.2773 19.0202 15.1836 18.9264C15.0898 18.8327 14.9626 18.78 14.83 18.78Z" fill="black"/>
</svg>
